<mxfile host="app.diagrams.net" modified="2022-11-04T14:45:04.256Z" agent="5.0 (Windows NT 10.0; Win64; x64) AppleWebKit/537.36 (KHTML, like Gecko) Chrome/106.0.0.0 Safari/537.36" etag="ef4VNW7vQM52ePkOb70y" version="20.5.1" type="github">
  <diagram id="RRgYxHHAey1sjHg7hyDt" name="第 1 页">
    <mxGraphModel dx="783" dy="631" grid="1" gridSize="10" guides="1" tooltips="1" connect="1" arrows="1" fold="1" page="1" pageScale="1" pageWidth="827" pageHeight="1169" math="0" shadow="0">
      <root>
        <mxCell id="0" />
        <mxCell id="1" parent="0" />
        <mxCell id="UYZATlDddXoYX5fPdjOc-1" value="根" style="ellipse;whiteSpace=wrap;html=1;" vertex="1" parent="1">
          <mxGeometry x="270" y="330" width="110" height="70" as="geometry" />
        </mxCell>
        <mxCell id="UYZATlDddXoYX5fPdjOc-2" value="" style="rounded=0;whiteSpace=wrap;html=1;" vertex="1" parent="1">
          <mxGeometry x="80" y="460" width="570" height="40" as="geometry" />
        </mxCell>
        <mxCell id="UYZATlDddXoYX5fPdjOc-4" value="" style="rounded=0;whiteSpace=wrap;html=1;fillColor=#647687;fontColor=#ffffff;strokeColor=#314354;" vertex="1" parent="1">
          <mxGeometry x="120" y="465" width="20" height="30" as="geometry" />
        </mxCell>
        <mxCell id="UYZATlDddXoYX5fPdjOc-6" value="" style="rounded=0;whiteSpace=wrap;html=1;fillColor=#647687;fontColor=#ffffff;strokeColor=#314354;" vertex="1" parent="1">
          <mxGeometry x="100" y="465" width="20" height="30" as="geometry" />
        </mxCell>
        <mxCell id="UYZATlDddXoYX5fPdjOc-9" value="" style="group" vertex="1" connectable="0" parent="1">
          <mxGeometry x="90" y="465" width="80" height="30" as="geometry" />
        </mxCell>
        <mxCell id="UYZATlDddXoYX5fPdjOc-5" value="" style="rounded=0;whiteSpace=wrap;html=1;fillColor=#647687;fontColor=#ffffff;strokeColor=#314354;" vertex="1" parent="UYZATlDddXoYX5fPdjOc-9">
          <mxGeometry x="40" width="40" height="30" as="geometry" />
        </mxCell>
        <mxCell id="UYZATlDddXoYX5fPdjOc-7" value="" style="rounded=0;whiteSpace=wrap;html=1;fillColor=#647687;fontColor=#ffffff;strokeColor=#314354;" vertex="1" parent="UYZATlDddXoYX5fPdjOc-9">
          <mxGeometry width="20" height="30" as="geometry" />
        </mxCell>
        <mxCell id="UYZATlDddXoYX5fPdjOc-8" value="" style="rounded=0;whiteSpace=wrap;html=1;fillColor=#647687;fontColor=#ffffff;strokeColor=#314354;" vertex="1" parent="UYZATlDddXoYX5fPdjOc-9">
          <mxGeometry x="20" width="20" height="30" as="geometry" />
        </mxCell>
        <mxCell id="UYZATlDddXoYX5fPdjOc-10" value="" style="group" vertex="1" connectable="0" parent="1">
          <mxGeometry x="190" y="465" width="80" height="30" as="geometry" />
        </mxCell>
        <mxCell id="UYZATlDddXoYX5fPdjOc-11" value="" style="rounded=0;whiteSpace=wrap;html=1;fillColor=#647687;fontColor=#ffffff;strokeColor=#314354;" vertex="1" parent="UYZATlDddXoYX5fPdjOc-10">
          <mxGeometry x="40" width="40" height="30" as="geometry" />
        </mxCell>
        <mxCell id="UYZATlDddXoYX5fPdjOc-12" value="" style="rounded=0;whiteSpace=wrap;html=1;fillColor=#647687;fontColor=#ffffff;strokeColor=#314354;" vertex="1" parent="UYZATlDddXoYX5fPdjOc-10">
          <mxGeometry width="20" height="30" as="geometry" />
        </mxCell>
        <mxCell id="UYZATlDddXoYX5fPdjOc-13" value="" style="rounded=0;whiteSpace=wrap;html=1;fillColor=#647687;fontColor=#ffffff;strokeColor=#314354;" vertex="1" parent="UYZATlDddXoYX5fPdjOc-10">
          <mxGeometry x="20" width="20" height="30" as="geometry" />
        </mxCell>
        <mxCell id="UYZATlDddXoYX5fPdjOc-15" value="" style="endArrow=classic;html=1;rounded=0;edgeStyle=orthogonalEdgeStyle;entryX=0.5;entryY=0;entryDx=0;entryDy=0;" edge="1" parent="1" source="UYZATlDddXoYX5fPdjOc-1" target="UYZATlDddXoYX5fPdjOc-12">
          <mxGeometry width="50" height="50" relative="1" as="geometry">
            <mxPoint x="190" y="370" as="sourcePoint" />
            <mxPoint x="180" y="440" as="targetPoint" />
            <Array as="points">
              <mxPoint x="200" y="365" />
            </Array>
          </mxGeometry>
        </mxCell>
        <mxCell id="UYZATlDddXoYX5fPdjOc-16" value="" style="group" vertex="1" connectable="0" parent="1">
          <mxGeometry x="290" y="465" width="80" height="30" as="geometry" />
        </mxCell>
        <mxCell id="UYZATlDddXoYX5fPdjOc-17" value="" style="rounded=0;whiteSpace=wrap;html=1;fillColor=#647687;fontColor=#ffffff;strokeColor=#314354;" vertex="1" parent="UYZATlDddXoYX5fPdjOc-16">
          <mxGeometry x="40" width="40" height="30" as="geometry" />
        </mxCell>
        <mxCell id="UYZATlDddXoYX5fPdjOc-18" value="" style="rounded=0;whiteSpace=wrap;html=1;fillColor=#647687;fontColor=#ffffff;strokeColor=#314354;" vertex="1" parent="UYZATlDddXoYX5fPdjOc-16">
          <mxGeometry width="20" height="30" as="geometry" />
        </mxCell>
        <mxCell id="UYZATlDddXoYX5fPdjOc-19" value="" style="rounded=0;whiteSpace=wrap;html=1;fillColor=#647687;fontColor=#ffffff;strokeColor=#314354;" vertex="1" parent="UYZATlDddXoYX5fPdjOc-16">
          <mxGeometry x="20" width="20" height="30" as="geometry" />
        </mxCell>
        <mxCell id="UYZATlDddXoYX5fPdjOc-21" value="" style="endArrow=classic;html=1;rounded=0;edgeStyle=orthogonalEdgeStyle;entryX=0.5;entryY=0;entryDx=0;entryDy=0;" edge="1" parent="1" target="UYZATlDddXoYX5fPdjOc-13">
          <mxGeometry width="50" height="50" relative="1" as="geometry">
            <mxPoint x="320" y="465" as="sourcePoint" />
            <mxPoint x="250" y="410" as="targetPoint" />
            <Array as="points">
              <mxPoint x="320" y="440" />
              <mxPoint x="220" y="440" />
            </Array>
          </mxGeometry>
        </mxCell>
        <mxCell id="UYZATlDddXoYX5fPdjOc-23" value="" style="group" vertex="1" connectable="0" parent="1">
          <mxGeometry x="380" y="465" width="80" height="30" as="geometry" />
        </mxCell>
        <mxCell id="UYZATlDddXoYX5fPdjOc-24" value="" style="rounded=0;whiteSpace=wrap;html=1;fillColor=#647687;fontColor=#ffffff;strokeColor=#314354;" vertex="1" parent="UYZATlDddXoYX5fPdjOc-23">
          <mxGeometry x="40" width="40" height="30" as="geometry" />
        </mxCell>
        <mxCell id="UYZATlDddXoYX5fPdjOc-25" value="" style="rounded=0;whiteSpace=wrap;html=1;fillColor=#647687;fontColor=#ffffff;strokeColor=#314354;" vertex="1" parent="UYZATlDddXoYX5fPdjOc-23">
          <mxGeometry width="20" height="30" as="geometry" />
        </mxCell>
        <mxCell id="UYZATlDddXoYX5fPdjOc-26" value="" style="rounded=0;whiteSpace=wrap;html=1;fillColor=#647687;fontColor=#ffffff;strokeColor=#314354;" vertex="1" parent="UYZATlDddXoYX5fPdjOc-23">
          <mxGeometry x="20" width="20" height="30" as="geometry" />
        </mxCell>
        <mxCell id="UYZATlDddXoYX5fPdjOc-27" value="" style="endArrow=classic;html=1;rounded=0;exitX=0.988;exitY=0.573;exitDx=0;exitDy=0;exitPerimeter=0;entryX=0.5;entryY=0;entryDx=0;entryDy=0;" edge="1" parent="1" source="UYZATlDddXoYX5fPdjOc-1" target="UYZATlDddXoYX5fPdjOc-25">
          <mxGeometry width="50" height="50" relative="1" as="geometry">
            <mxPoint x="380" y="370" as="sourcePoint" />
            <mxPoint x="420" y="450" as="targetPoint" />
            <Array as="points">
              <mxPoint x="390" y="370" />
            </Array>
          </mxGeometry>
        </mxCell>
        <mxCell id="UYZATlDddXoYX5fPdjOc-29" value="" style="group" vertex="1" connectable="0" parent="1">
          <mxGeometry x="470" y="465" width="80" height="30" as="geometry" />
        </mxCell>
        <mxCell id="UYZATlDddXoYX5fPdjOc-30" value="" style="rounded=0;whiteSpace=wrap;html=1;fillColor=#647687;fontColor=#ffffff;strokeColor=#314354;" vertex="1" parent="UYZATlDddXoYX5fPdjOc-29">
          <mxGeometry x="40" width="40" height="30" as="geometry" />
        </mxCell>
        <mxCell id="UYZATlDddXoYX5fPdjOc-31" value="" style="rounded=0;whiteSpace=wrap;html=1;fillColor=#647687;fontColor=#ffffff;strokeColor=#314354;" vertex="1" parent="UYZATlDddXoYX5fPdjOc-29">
          <mxGeometry width="20" height="30" as="geometry" />
        </mxCell>
        <mxCell id="UYZATlDddXoYX5fPdjOc-32" value="" style="rounded=0;whiteSpace=wrap;html=1;fillColor=#647687;fontColor=#ffffff;strokeColor=#314354;" vertex="1" parent="UYZATlDddXoYX5fPdjOc-29">
          <mxGeometry x="20" width="20" height="30" as="geometry" />
        </mxCell>
        <mxCell id="UYZATlDddXoYX5fPdjOc-33" value="" style="endArrow=classic;html=1;rounded=0;exitX=0.396;exitY=0.057;exitDx=0;exitDy=0;exitPerimeter=0;" edge="1" parent="1" source="UYZATlDddXoYX5fPdjOc-24" target="UYZATlDddXoYX5fPdjOc-31">
          <mxGeometry width="50" height="50" relative="1" as="geometry">
            <mxPoint x="430" y="450" as="sourcePoint" />
            <mxPoint x="500" y="440" as="targetPoint" />
            <Array as="points">
              <mxPoint x="436" y="440" />
              <mxPoint x="480" y="440" />
            </Array>
          </mxGeometry>
        </mxCell>
        <mxCell id="UYZATlDddXoYX5fPdjOc-36" value="" style="group" vertex="1" connectable="0" parent="1">
          <mxGeometry x="560" y="465" width="80" height="30" as="geometry" />
        </mxCell>
        <mxCell id="UYZATlDddXoYX5fPdjOc-37" value="" style="rounded=0;whiteSpace=wrap;html=1;fillColor=#647687;fontColor=#ffffff;strokeColor=#314354;" vertex="1" parent="UYZATlDddXoYX5fPdjOc-36">
          <mxGeometry x="40" width="40" height="30" as="geometry" />
        </mxCell>
        <mxCell id="UYZATlDddXoYX5fPdjOc-38" value="" style="rounded=0;whiteSpace=wrap;html=1;fillColor=#647687;fontColor=#ffffff;strokeColor=#314354;" vertex="1" parent="UYZATlDddXoYX5fPdjOc-36">
          <mxGeometry width="20" height="30" as="geometry" />
        </mxCell>
        <mxCell id="UYZATlDddXoYX5fPdjOc-39" value="" style="rounded=0;whiteSpace=wrap;html=1;fillColor=#647687;fontColor=#ffffff;strokeColor=#314354;" vertex="1" parent="UYZATlDddXoYX5fPdjOc-36">
          <mxGeometry x="20" width="20" height="30" as="geometry" />
        </mxCell>
        <mxCell id="UYZATlDddXoYX5fPdjOc-40" value="" style="endArrow=classic;html=1;rounded=0;exitX=0.5;exitY=0;exitDx=0;exitDy=0;entryX=0.75;entryY=0;entryDx=0;entryDy=0;" edge="1" parent="1" source="UYZATlDddXoYX5fPdjOc-26" target="UYZATlDddXoYX5fPdjOc-38">
          <mxGeometry width="50" height="50" relative="1" as="geometry">
            <mxPoint x="410" y="440" as="sourcePoint" />
            <mxPoint x="580" y="420" as="targetPoint" />
            <Array as="points">
              <mxPoint x="410" y="420" />
              <mxPoint x="575" y="420" />
            </Array>
          </mxGeometry>
        </mxCell>
      </root>
    </mxGraphModel>
  </diagram>
</mxfile>
